<svg id="Layer_1" data-name="Layer 1" xmlns="http://www.w3.org/2000/svg" xmlns:xlink="http://www.w3.org/1999/xlink"
     viewBox="0 0 202.31 108.72" width="106" height="57">
    <defs>
        <style>.cls-1, .cls-5 {
          fill: #fff;
        }

        .cls-2 {
          fill: url(#linear-gradient);
        }

        .cls-3 {
          fill: #231911;
          opacity: 0.15;
        }

        .cls-4 {
          fill: url(#linear-gradient-2);
        }

        .cls-5 {
          opacity: 0.3;
        }</style>
        <linearGradient id="linear-gradient" x1="-3081.66" y1="2520.07" x2="-3081.62" y2="2478.84"
                        gradientTransform="translate(4106.54 486.05) rotate(45)" gradientUnits="userSpaceOnUse">
            <stop offset="0" stop-color="#fff"/>
            <stop offset="1" stop-color="#bfbfbf"/>
        </linearGradient>
        <linearGradient id="linear-gradient-2" x1="4077.38" y1="9634.73" x2="4058.72" y2="9702.62"
                        gradientTransform="matrix(0.71, -0.71, -0.71, -0.71, 4105.28, 9753.85)"
                        gradientUnits="userSpaceOnUse">
            <stop offset="0" stop-color="#fff"/>
            <stop offset="0.22" stop-color="#f8f8f8"/>
            <stop offset="0.54" stop-color="#e5e5e5"/>
            <stop offset="0.92" stop-color="#c6c6c6"/>
            <stop offset="1" stop-color="#bfbfbf"/>
        </linearGradient>
    </defs>
    <path class="cls-1"
          d="M5.05,60.24a16.33,16.33,0,0,1,16.36-16.8c7.39,0,11.64,4.48,11.64,11.09a22.27,22.27,0,0,1-1,6.16H11.72l.95-5.6H26.89l-2.35,1.29a8,8,0,0,0,.34-2c0-2.74-1.46-4.09-3.7-4.09-2.91,0-7.17,2.8-7.17,9.63,0,4.82,2.8,6.05,5.83,6.05s5.37-1.12,8-2.69L30.7,69.2a23,23,0,0,1-13,3.58C10.54,72.78,5.05,69,5.05,60.24Z"/>
    <path class="cls-1"
          d="M42,35.71H53.77c7.23,0,13,2.69,13,10,0,10.64-8,14.56-17,14.56H46.1L43.69,72.11h-9Zm8.4,17.47c4.71,0,7.4-2.12,7.4-6.16,0-2.91-1.91-4.25-5.44-4.25H49.52l-2,10.41Z"/>
    <path class="cls-1"
          d="M66,61.92c0-10.3,7.17-18.48,14.9-18.48,3.58,0,6.16,1.34,7.39,3.47h.22l1.23-2.8h7.17l-5.6,28H84V68.42h-.22A12.44,12.44,0,0,1,75,72.78C69.45,72.78,66,68.86,66,61.92Zm18.48-.34,1.85-8.73a4.51,4.51,0,0,0-3.75-2.13c-3.81,0-7.28,4.14-7.28,10.08,0,3.3,1.23,4.7,3.13,4.7S82.56,64.38,84.46,61.58Z"/>
    <path class="cls-1"
          d="M97,67.63l4.88-5.6a13.5,13.5,0,0,0,9.57,4.15c2.13,0,3.25-.56,3.25-1.57,0-1.23-.9-1.79-4.82-3-5.6-1.79-8.84-4.36-8.84-8.73,0-6.16,5.82-9.41,12.31-9.41A16.13,16.13,0,0,1,125.23,48l-4.88,5.21a13.54,13.54,0,0,0-8-3.19c-1.74,0-2.92.5-2.92,1.68s1.24,1.68,5.49,3.13c4.93,1.68,8.18,3.92,8.18,8.52,0,6.44-5.71,9.4-13.11,9.4A18.06,18.06,0,0,1,97,67.63Z"/>
    <path class="cls-1"
          d="M125,67.63l4.88-5.6a13.5,13.5,0,0,0,9.57,4.15c2.13,0,3.25-.56,3.25-1.57,0-1.23-.9-1.79-4.82-3-5.6-1.79-8.84-4.36-8.84-8.73,0-6.16,5.82-9.41,12.31-9.41A16.13,16.13,0,0,1,153.23,48l-4.88,5.21a13.54,13.54,0,0,0-8-3.19c-1.74,0-2.92.5-2.92,1.68s1.24,1.68,5.49,3.13c4.93,1.68,8.18,3.92,8.18,8.52,0,6.44-5.71,9.4-13.11,9.4A18.06,18.06,0,0,1,125,67.63Z"/>
    <path class="cls-2"
          d="M153.59,101.84s-1.29-9.63-1.05-10.74l23-55.18a1.5,1.5,0,0,1,2.11,0l20.92,20.92a1.5,1.5,0,0,1,0,2.11l-42.88,42.89A1.48,1.48,0,0,1,153.59,101.84Z"/>
    <path class="cls-3" d="M177.93,79.6a18.19,18.19,0,0,1-1.8,1.71c-1.08-1.08-13.72-13.88-13.72-13.88L166.33,58Z"/>
    <path class="cls-4"
          d="M154.16,14.56s-2.07,9.35-1.83,10.46l23.79,56.37c.14-.14.91-.93,1.49-1.5l20.94-21a1.5,1.5,0,0,0,0-2.11L156.27,14.56A1.5,1.5,0,0,0,154.16,14.56Z"/>
    <path class="cls-5"
          d="M191.4,49.68a10.3,10.3,0,0,1,.69,6.36c-.75,3.18-3.91,8.4-6.75,12.37-6.75,9.44-9.22,13-9.22,13l22.43-22.45a1.45,1.45,0,0,0,0-2.11C197.5,55.74,191.4,49.68,191.4,49.68Z"/>
</svg>