
<svg version="1.0" xmlns="http://www.w3.org/2000/svg"
     width="100.000000pt" height="100.000000pt" viewBox="0 0 100.000000 100.000000"
     preserveAspectRatio="xMidYMid meet">

  <g transform="translate(0.000000,100.000000) scale(0.100000,-0.100000)"
     fill="currentColor" stroke="none">
    <path d="M202 984 c-17 -12 -22 -25 -22 -59 l0 -44 -67 -3 -68 -3 0 -435 0
-435 455 0 455 0 0 435 0 435 -67 3 -67 3 -3 46 c-4 57 -29 79 -68 60 -21 -10
-26 -21 -28 -60 l-3 -47 -85 0 -84 0 0 45 c0 36 -4 47 -25 61 -23 15 -27 15
-50 0 -21 -14 -25 -25 -25 -61 l0 -45 -85 0 -85 0 0 44 c0 35 -5 48 -22 60
-12 9 -25 16 -28 16 -3 0 -16 -7 -28 -16z m44 -26 c11 -17 13 -161 3 -180 -5
-10 -16 -15 -24 -12 -12 5 -15 26 -15 98 0 51 3 96 7 99 10 10 21 8 29 -5z
m272 0 c17 -17 16 -159 -1 -183 -26 -34 -37 -8 -37 89 0 105 8 124 38 94z
m267 -94 c0 -81 -3 -99 -15 -99 -12 0 -16 18 -18 89 -3 97 1 120 21 113 8 -2
12 -32 12 -103z m-605 -57 c0 -49 13 -67 50 -67 37 0 50 18 50 67 l0 43 85 0
85 0 0 -36 c0 -50 15 -74 48 -74 39 0 52 17 52 67 l0 43 85 0 85 0 0 -43 c0
-49 13 -67 50 -67 37 0 50 18 50 67 l0 43 55 0 55 0 0 -410 0 -410 -430 0
-430 0 0 410 0 410 55 0 55 0 0 -43z"/>
    <path d="M147 663 c-4 -3 -7 -118 -7 -255 l0 -248 360 0 360 0 -2 253 -3 252
-351 3 c-193 1 -353 -1 -357 -5z m683 -250 l0 -228 -330 0 -330 0 0 228 0 227
330 0 330 0 0 -227z"/>
  </g>
</svg>
