<svg version="1.0" xmlns="http://www.w3.org/2000/svg"
 width="100.000000pt" height="100.000000pt" viewBox="0 0 100.000000 100.000000"
 preserveAspectRatio="xMidYMid meet">

<g transform="translate(0.000000,100.000000) scale(0.100000,-0.100000)"
fill="currentColor" stroke="none">
<path d="M210 889 c-50 -20 -70 -51 -110 -175 -25 -78 -49 -132 -64 -147 -32
-32 -39 -71 -34 -205 3 -101 5 -113 28 -137 13 -14 26 -38 27 -53 2 -15 15
-37 29 -50 21 -18 37 -22 93 -22 82 0 121 23 121 71 l0 29 200 0 200 0 0 -25
c0 -14 11 -37 25 -50 21 -22 33 -25 97 -25 42 0 80 6 89 13 19 15 39 50 39 71
0 8 12 27 26 43 25 27 25 29 22 170 -3 138 -4 142 -30 170 -17 18 -41 70 -66
146 -64 192 -55 187 -404 186 -150 0 -274 -5 -288 -10z m588 -63 c12 -10 37
-65 56 -122 l35 -104 -385 0 c-211 0 -384 3 -384 7 0 17 63 199 73 212 22 27
57 30 318 28 244 -2 269 -4 287 -21z m132 -296 c18 -18 20 -33 20 -134 0 -63
-3 -121 -6 -130 -5 -14 -54 -16 -439 -16 -336 0 -436 3 -442 13 -4 6 -8 66 -9
131 -1 103 1 121 17 137 18 18 43 19 429 19 397 0 411 -1 430 -20z m-682 -352
c-3 -20 -10 -23 -61 -26 -59 -3 -87 8 -87 34 0 11 18 14 76 14 72 0 75 -1 72
-22z m652 2 c0 -24 -28 -32 -96 -28 -42 3 -49 6 -52 26 -3 21 0 22 72 22 69 0
76 -2 76 -20z"/>
<path d="M148 480 c-14 -10 -31 -33 -38 -50 -11 -27 -11 -37 3 -65 23 -48 59
-69 105 -62 48 8 82 46 82 93 0 46 -14 70 -50 89 -39 20 -72 19 -102 -5z m83
-40 c26 -14 26 -66 0 -80 -31 -16 -49 -12 -67 15 -15 23 -15 27 0 50 18 27 36
31 67 15z"/>
<path d="M350 475 l0 -25 150 0 150 0 0 25 0 25 -150 0 -150 0 0 -25z"/>
<path d="M734 466 c-37 -37 -43 -70 -20 -115 16 -30 53 -51 92 -51 38 0 94 59
94 100 0 23 -9 42 -34 66 -46 46 -86 46 -132 0z m98 -33 c22 -20 23 -41 1 -65
-20 -22 -46 -23 -67 -2 -30 29 -9 84 31 84 9 0 25 -7 35 -17z"/>
<path d="M350 325 l0 -25 150 0 150 0 0 25 0 25 -150 0 -150 0 0 -25z"/>
</g>
</svg>
