<svg version="1.0" xmlns="http://www.w3.org/2000/svg"
 width="100.000000pt" height="100.000000pt" viewBox="0 0 100.000000 100.000000"
 preserveAspectRatio="xMidYMid meet">

<g transform="translate(0.000000,100.000000) scale(0.100000,-0.100000)"
fill="currentColor" stroke="none">
<path d="M393 986 c-125 -41 -193 -133 -193 -261 0 -74 15 -119 61 -176 l31
-39 -27 -10 c-40 -15 -116 -69 -153 -109 -65 -69 -72 -95 -72 -251 l0 -140
270 0 c232 0 270 2 270 15 0 12 -38 15 -257 17 l-258 3 -3 85 c-2 47 2 110 9
140 10 48 20 63 78 121 51 50 85 73 140 96 l72 30 -34 23 c-74 50 -115 153
-96 241 50 231 356 268 455 54 47 -99 19 -218 -66 -286 l-41 -33 48 -17 c26
-9 63 -26 82 -37 33 -20 51 -21 51 -3 0 4 -24 20 -52 36 -29 15 -55 29 -57 31
-1 1 11 20 29 42 33 42 60 115 60 167 0 173 -187 314 -347 261z"/>
<path d="M695 338 c-101 -59 -116 -215 -27 -290 87 -73 205 -57 270 36 21 31
27 50 26 95 0 107 -63 173 -168 179 -50 2 -68 -2 -101 -20z m173 -28 c67 -41
90 -148 44 -210 -37 -50 -82 -72 -135 -67 -60 5 -95 30 -125 88 -35 68 -13
146 54 190 40 26 118 25 162 -1z"/>
<path d="M770 265 c0 -8 7 -15 15 -15 8 0 15 7 15 15 0 8 -7 15 -15 15 -8 0
-15 -7 -15 -15z"/>
<path d="M770 140 c0 -47 3 -60 15 -60 12 0 15 13 15 60 0 47 -3 60 -15 60
-12 0 -15 -13 -15 -60z"/>
</g>
</svg>
