<svg version="1.0" xmlns="http://www.w3.org/2000/svg"
 width="100.000000pt" height="100.000000pt" viewBox="0 0 100.000000 100.000000"
 preserveAspectRatio="xMidYMid meet">

<g transform="translate(0.000000,100.000000) scale(0.100000,-0.100000)"
fill="currentColor" stroke="none">
<path d="M334 981 c-77 -30 -80 -37 -59 -122 6 -21 0 -32 -32 -62 -42 -41 -55
-44 -104 -23 -23 10 -39 11 -55 4 -25 -12 -68 -96 -62 -124 2 -10 22 -31 46
-47 l43 -29 -3 -56 c-3 -57 -3 -57 -47 -78 -58 -28 -66 -50 -40 -119 23 -63
45 -74 104 -55 36 12 38 11 77 -26 34 -34 38 -43 33 -69 -22 -104 -22 -102 38
-131 67 -33 95 -28 122 23 17 33 25 38 59 41 64 5 85 -4 102 -49 23 -56 42
-64 110 -42 69 21 83 44 65 104 -12 40 -12 42 21 76 41 42 67 49 107 28 45
-23 68 -11 98 49 32 66 27 94 -24 121 -36 19 -38 23 -39 70 -1 63 6 77 48 90
18 7 39 23 46 36 12 21 11 31 -8 81 -24 65 -41 75 -100 57 -40 -12 -41 -12
-80 26 -44 43 -48 61 -24 106 8 16 12 39 9 50 -8 24 -98 71 -128 67 -12 -2
-34 -22 -50 -46 l-29 -43 -56 3 c-56 3 -57 4 -77 46 -20 42 -40 63 -60 61 -5
-1 -28 -8 -51 -18z m83 -58 c22 -53 39 -62 116 -63 66 0 69 1 85 31 35 63 37
64 68 50 16 -7 39 -19 52 -27 21 -14 21 -16 7 -44 -26 -50 -19 -81 30 -134 42
-46 47 -48 82 -43 21 4 47 8 57 9 15 2 24 -8 38 -44 17 -47 17 -47 -5 -63 -12
-8 -27 -15 -33 -15 -28 0 -54 -52 -54 -106 0 -70 6 -81 51 -105 44 -22 46 -27
23 -72 -28 -55 -33 -58 -65 -42 -49 26 -80 19 -133 -30 -51 -48 -53 -55 -30
-133 5 -18 1 -24 -27 -36 -62 -26 -72 -24 -91 16 -25 52 -53 68 -119 68 -59 0
-77 -12 -115 -76 -11 -18 -13 -18 -58 3 -50 25 -53 33 -32 84 17 42 9 64 -43
119 -42 45 -52 46 -129 24 -18 -5 -24 -1 -37 30 -24 58 -20 74 25 92 50 20 60
38 60 108 0 72 -5 83 -51 107 -22 11 -39 24 -39 30 0 21 41 89 54 89 7 0 29
-6 47 -14 44 -18 81 -4 128 49 34 39 36 53 15 122 -5 18 0 25 27 37 58 25 78
21 96 -21z"/>
<path d="M407 756 c-116 -43 -185 -154 -174 -282 11 -142 122 -243 267 -244
155 0 270 114 270 270 0 103 -48 184 -137 237 -55 32 -166 42 -226 19z m200
-40 c167 -86 177 -322 19 -420 -117 -73 -278 -28 -342 95 -23 45 -29 121 -13
176 16 57 98 146 150 162 46 14 148 7 186 -13z"/>
</g>
</svg>
