<svg version="1.0" xmlns="http://www.w3.org/2000/svg"
 width="100.000000pt" height="100.000000pt" viewBox="0 0 100.000000 100.000000"
 preserveAspectRatio="xMidYMid meet">

<g transform="translate(0.000000,100.000000) scale(0.100000,-0.100000)"
fill="currentColor" stroke="none">
<path d="M393 975 c-81 -18 -169 -65 -224 -121 -50 -50 -59 -53 -59 -21 0 48
-11 67 -39 67 -52 0 -53 -6 -34 -138 14 -96 21 -122 33 -121 8 0 62 8 120 17
l105 17 3 30 c4 47 -6 54 -63 45 -27 -4 -52 -6 -55 -3 -10 10 91 92 144 118
231 113 516 -32 568 -289 l11 -56 38 0 c36 0 39 2 39 28 0 87 -62 216 -144
297 -69 69 -144 109 -244 131 -81 17 -118 17 -199 -1z"/>
<path d="M16 448 c31 -218 167 -371 377 -425 153 -39 349 23 460 146 20 23 39
41 42 41 3 0 5 -15 5 -32 0 -66 8 -77 48 -71 21 3 39 7 41 9 4 3 -29 235 -35
245 -2 3 -43 0 -91 -7 -163 -25 -153 -22 -153 -52 0 -46 12 -54 65 -47 45 7
47 7 36 -13 -27 -51 -131 -115 -225 -139 -173 -42 -362 50 -445 219 -17 35
-34 87 -38 116 l-6 52 -44 0 -43 0 6 -42z"/>
</g>
</svg>
