<svg version="1.0" xmlns="http://www.w3.org/2000/svg"
 width="100.000000pt" height="100.000000pt" viewBox="0 0 100.000000 100.000000"
 preserveAspectRatio="xMidYMid meet">

<g transform="translate(0.000000,100.000000) scale(0.100000,-0.100000)"
fill="currentColor" stroke="none">
<path d="M11 986 c-9 -11 -11 -87 -9 -286 1 -149 5 -276 9 -281 3 -6 90 -8
215 -7 l209 3 0 290 0 290 -206 3 c-170 2 -208 0 -218 -12z m379 -286 l0 -250
-167 2 -168 3 -3 248 -2 247 170 0 170 0 0 -250z"/>
<path d="M572 988 c-17 -17 -17 -249 0 -266 17 -17 399 -17 416 0 17 17 17
249 0 266 -17 17 -399 17 -416 0z m378 -133 l0 -95 -170 0 -170 0 0 95 0 95
170 0 170 0 0 -95z"/>
<path d="M571 576 c-8 -9 -11 -95 -9 -292 l3 -279 215 0 215 0 3 279 c2 197
-1 283 -9 292 -9 11 -54 14 -209 14 -155 0 -200 -3 -209 -14z m379 -283 l0
-248 -170 -2 -170 -2 0 250 0 249 170 0 170 0 0 -247z"/>
<path d="M9 273 c-1 -8 0 -252 1 -266 0 -4 96 -6 213 -5 l212 3 3 138 3 137
-216 0 c-118 0 -215 -3 -216 -7z m383 -129 c2 -53 1 -98 -1 -100 -2 -2 -80 -4
-173 -4 l-168 0 0 100 0 100 169 0 170 0 3 -96z"/>
</g>
</svg>
