<svg version="1.0" xmlns="http://www.w3.org/2000/svg"
 width="100.000000pt" height="100.000000pt" viewBox="0 0 100.000000 100.000000"
 preserveAspectRatio="xMidYMid meet">

<g transform="translate(0.000000,100.000000) scale(0.100000,-0.100000)"
fill="currentColor" stroke="none">
<path d="M483 726 c-254 -55 -467 -106 -473 -112 -7 -7 20 -40 95 -113 l105
-102 0 -109 c0 -67 4 -111 11 -115 12 -8 50 25 81 69 17 23 18 30 7 37 -9 5
-21 1 -36 -13 l-23 -21 0 57 0 58 101 -96 c87 -84 103 -95 116 -84 14 11 207
239 451 531 45 54 80 103 77 108 -4 5 -16 8 -28 8 -12 -1 -230 -47 -484 -103z
m327 19 c-14 -7 -149 -81 -300 -163 l-275 -150 -81 76 c-45 42 -82 80 -83 83
-1 5 716 166 749 167 8 1 4 -5 -10 -13z m-134 -259 c-113 -135 -211 -248 -216
-251 -11 -7 -185 151 -185 167 0 8 597 336 603 332 2 -2 -89 -113 -202 -248z"/>
</g>
</svg>
