<svg version="1.0" xmlns="http://www.w3.org/2000/svg"
 width="100.000000pt" height="101.000000pt" viewBox="0 0 100.000000 101.000000"
 preserveAspectRatio="xMidYMid meet">

<g transform="translate(0.000000,101.000000) scale(0.100000,-0.100000)"
fill="currentColor" stroke="none">
<path d="M416 1002 c-3 -5 -6 -29 -7 -54 -3 -45 -4 -46 -54 -67 -27 -12 -54
-21 -59 -21 -4 0 -26 14 -48 32 l-40 31 -60 -60 -61 -61 33 -41 33 -40 -18
-48 c-23 -62 -27 -66 -83 -78 l-47 -10 0 -85 0 -85 50 -5 c49 -5 50 -6 76 -60
l26 -55 -35 -43 -35 -43 60 -61 61 -61 44 36 c36 30 46 34 63 24 11 -6 36 -16
55 -23 33 -11 35 -15 40 -66 l5 -53 43 -3 c39 -3 42 -1 42 22 0 21 -5 26 -24
26 -21 0 -25 6 -31 49 -6 46 -9 50 -38 56 -18 4 -52 18 -75 31 l-44 24 -39
-32 -39 -32 -30 29 c-17 16 -30 33 -30 38 0 6 12 25 26 44 l26 34 -25 57 c-14
31 -27 66 -29 77 -2 11 -10 21 -18 22 -92 12 -90 11 -90 58 0 48 4 51 74 57
25 3 31 9 41 45 7 24 22 57 32 76 l20 33 -29 34 c-35 43 -35 50 1 84 l30 29
41 -31 42 -30 31 18 c18 10 51 24 74 31 40 11 42 14 48 60 6 43 10 49 31 49
19 0 24 5 24 25 0 22 -4 25 -39 25 -22 0 -42 -4 -45 -8z"/>
<path d="M709 977 c-58 -39 -74 -98 -44 -157 41 -79 169 -79 210 0 31 59 6
133 -54 165 -41 21 -72 19 -112 -8z m119 -50 c47 -43 9 -127 -58 -127 -37 0
-80 39 -80 72 0 30 26 67 54 78 27 11 55 3 84 -23z"/>
<path d="M404 736 c-117 -51 -180 -192 -142 -318 24 -81 131 -168 206 -168 25
0 32 4 32 20 0 13 -7 20 -20 20 -32 0 -92 28 -124 58 -110 103 -75 288 66 346
21 9 47 16 58 16 13 0 20 7 20 20 0 16 -7 20 -32 20 -18 -1 -47 -7 -64 -14z"/>
<path d="M601 726 c-45 -25 -50 -49 -51 -238 l0 -178 48 0 47 0 0 -152 0 -153
128 -3 127 -3 0 156 0 155 50 0 50 0 0 170 c0 183 -6 212 -52 244 -33 24 -68
19 -118 -14 -25 -16 -50 -30 -57 -30 -7 0 -34 14 -60 30 -51 33 -75 36 -112
16z m110 -65 l61 -39 62 39 c33 21 66 39 73 39 6 0 21 -12 32 -26 19 -24 21
-40 21 -170 l0 -144 -30 0 -30 0 0 120 c0 113 -1 120 -20 120 -19 0 -20 -8
-22 -277 l-3 -278 -30 0 -30 0 -3 143 c-2 134 -4 142 -22 142 -19 0 -20 -7
-20 -146 l0 -145 -32 3 -33 3 -3 278 c-2 269 -3 277 -22 277 -19 0 -20 -7 -20
-120 l0 -120 -27 0 -28 0 3 152 c2 141 4 154 23 171 12 9 25 17 30 17 4 0 36
-18 70 -39z"/>
</g>
</svg>
