<svg version="1.0" xmlns="http://www.w3.org/2000/svg"
 width="100.000000pt" height="100.000000pt" viewBox="0 0 100.000000 100.000000"
 preserveAspectRatio="xMidYMid meet">

<g transform="translate(0.000000,100.000000) scale(0.100000,-0.100000)"
fill="currentColor" stroke="none">
<path d="M240 985 c0 -8 16 -38 36 -66 l37 -50 -37 -38 c-43 -44 -45 -58 -11
-67 14 -4 25 -8 23 -9 -2 -2 -57 -10 -123 -19 -187 -26 -166 -8 -163 -138 l3
-112 40 -8 c22 -4 87 -18 145 -30 120 -25 117 -27 -67 -49 -57 -6 -108 -18
-113 -24 -6 -8 -10 -55 -8 -116 l3 -104 375 -77 c207 -43 378 -74 383 -69 4 4
-5 31 -22 60 -32 54 -38 76 -21 86 5 3 19 19 30 35 l22 30 -34 15 c-18 8 -26
14 -18 15 19 0 228 29 258 36 22 4 23 7 20 116 l-3 112 -40 8 c-141 28 -245
51 -243 54 2 1 57 10 123 19 186 24 166 7 163 138 l-3 112 -370 77 c-203 42
-373 77 -377 78 -5 0 -8 -7 -8 -15z m624 -148 c6 -2 -9 -7 -34 -10 -25 -4
-131 -18 -235 -33 -167 -23 -197 -25 -249 -14 l-58 12 31 32 c17 18 31 35 31
40 0 4 -11 24 -25 44 -14 20 -25 39 -25 42 0 5 529 -101 564 -113z m101 -109
c0 -81 -1 -83 -25 -86 -36 -4 -427 -57 -679 -92 -117 -17 -215 -30 -217 -30
-2 0 -4 37 -4 83 l0 83 93 12 c187 24 545 74 657 92 63 10 129 18 145 19 l31
1 -1 -82z m-227 -194 c73 -15 131 -29 129 -31 -2 -2 -107 -17 -232 -34 l-228
-31 -139 27 c-76 15 -137 30 -134 32 4 4 406 60 446 62 14 1 85 -11 158 -25z
m228 -136 l-1 -83 -85 -11 c-47 -7 -188 -26 -315 -43 -126 -18 -289 -41 -362
-51 -72 -11 -139 -20 -148 -20 -13 0 -15 12 -13 82 l3 83 205 28 c113 15 311
43 440 61 129 19 244 34 256 35 19 1 20 -4 20 -81z m-303 -179 l57 -12 -27
-35 -26 -35 21 -41 c12 -23 22 -44 22 -47 0 -6 -480 89 -555 110 -27 7 -25 9
30 16 33 4 130 18 215 30 188 28 192 28 263 14z"/>
</g>
</svg>
