<svg
  xmlns="http://www.w3.org/2000/svg"
  xmlns:xlink="http://www.w3.org/1999/xlink"
  width="16"
  height="16"
  viewBox="0 0 16 16"
>
  <g
    data-name="Mask Group 18941"
    transform="translate(-1663 -243)"
  >
    <g transform="translate(1663.017 243)">
      <path
        data-name="Path 63679"
        d="M13.458,17.685h-.1c-3.459,0-5.126-1.363-5.414-4.417a.585.585,0,0,1,.53-.639.6.6,0,0,1,.639.53c.226,2.446,1.379,3.357,4.253,3.357h.1c3.17,0,4.292-1.122,4.292-4.292V7.145c0-3.17-1.122-4.292-4.292-4.292h-.1c-2.89,0-4.043.927-4.253,3.42a.59.59,0,0,1-1.176-.1c.265-3.1,1.94-4.487,5.422-4.487h.1c3.825,0,5.461,1.636,5.461,5.461v5.079C18.919,16.049,17.283,17.685,13.458,17.685Z"
        transform="translate(-2.952 -1.685)"
        fill="currentColor"
      />
      <path
        data-name="Path 63680"
        d="M12.243,12.123H3.379a.584.584,0,1,1,0-1.168h8.865a.584.584,0,1,1,0,1.168Z"
        transform="translate(-1.924 -3.538)"
        fill="currentColor"
      />
      <path
        data-name="Path 63681"
        d="M4.9,14.08a.578.578,0,0,1-.413-.171L1.876,11.3a.587.587,0,0,1,0-.826l2.61-2.61a.584.584,0,0,1,.826.826l-2.2,2.2,2.2,2.2a.588.588,0,0,1,0,.826.565.565,0,0,1-.413.171Z"
        transform="translate(-1.706 -2.887)"
        fill="currentColor"
      />
    </g>
  </g>
</svg>
